<?xml version="1.0" standalone="no"?>
<!DOCTYPE svg PUBLIC "-//W3C//DTD SVG 20010904//EN"
 "http://www.w3.org/TR/2001/REC-SVG-20010904/DTD/svg10.dtd">
<svg version="1.0" xmlns="http://www.w3.org/2000/svg"
 width="473.000000pt" height="473.000000pt" viewBox="0 0 473.000000 473.000000"
 preserveAspectRatio="xMidYMid meet">
<metadata>
Created by potrace 1.11, written by Peter Selinger 2001-2013
</metadata>
<g transform="translate(0.000000,473.000000) scale(0.100000,-0.100000)"
fill="#000000" stroke="none">
<path d="M2087 4541 c-147 -103 -272 -192 -277 -197 -5 -5 -5 -25 0 -49 5 -22
11 -60 15 -85 3 -25 8 -52 10 -60 2 -8 7 -31 10 -50 3 -19 14 -85 25 -146 11
-61 22 -129 26 -150 3 -21 14 -86 25 -143 10 -58 18 -105 16 -106 -1 -1 -47
-33 -102 -70 -55 -38 -126 -87 -157 -109 -31 -23 -116 -81 -188 -131 -140 -96
-284 -197 -312 -217 -10 -7 -54 -38 -98 -68 -290 -197 -310 -217 -311 -314 -5
-494 1 -1576 9 -1596 16 -41 69 -87 207 -181 72 -49 138 -95 148 -102 10 -6
145 -100 300 -207 274 -189 398 -275 643 -446 64 -45 138 -88 165 -96 64 -21
183 -20 245 1 41 13 276 170 529 353 36 26 436 302 638 440 218 149 262 184
280 222 17 36 18 89 19 850 2 726 0 814 -14 841 -18 34 -58 73 -103 101 -16
10 -34 23 -40 27 -5 5 -55 39 -110 77 -55 38 -104 72 -110 77 -5 4 -46 33 -90
63 -80 54 -146 100 -220 152 -22 16 -76 53 -120 83 -302 207 -360 251 -358
270 4 34 14 99 18 115 2 8 6 33 10 55 3 22 7 47 10 55 2 8 6 33 10 55 5 39 14
91 22 130 2 11 6 36 9 55 3 19 16 93 29 164 13 71 22 133 20 137 -7 11 -549
389 -556 389 -2 -1 -125 -85 -272 -189z"/>
</g>
</svg>
