<?xml version="1.0" encoding="utf-8"?>
<!-- Generator: Adobe Illustrator 21.0.0, SVG Export Plug-In . SVG Version: 6.00 Build 0)  -->
<svg version="1.1" id="Layer_1" xmlns="http://www.w3.org/2000/svg" xmlns:xlink="http://www.w3.org/1999/xlink" x="0px" y="0px"
	 viewBox="0 0 140.2 136.3" style="enable-background:new 0 0 140.2 136.3;" xml:space="preserve">
<style type="text/css">
	.st0{fill:#0F3659;}
	.st1{fill:#0BCFD8;}
</style>
<title>Group 32</title>
<g>
	<path class="st0" d="M65.3,116.1c2-1.3,3.2-3.6,3.2-6l0.1-12.2l0.1-13c0-0.6,0-1.2-0.1-1.7L48.5,95.8l-11.7,7.7
		c-1.3,0.9-3,0.8-4.3-0.1l-9.3-6.7l-11.7-7.6L1,82.4c-0.2,0.6-0.2,1.3-0.2,1.9L0.8,96.3l0,13.5c0,2.4,1.2,4.7,3.2,6.1L30.5,134
		c2.5,1.7,5.7,1.7,8.2,0L65.3,116.1L65.3,116.1z"/>
	<path class="st1" d="M1,82.4l10.5,6.7l11.6,7.5l9.5-6.3c1.3-0.9,3-0.8,4.3,0.1l9.3,6.7l0.1,0l2.2-1.5l20.1-12.7
		c-0.3-2.1-1.4-3.9-3.1-5.1L38.9,59.9c-2.5-1.7-5.7-1.7-8.2,0L4.1,77.8c-1.7,1.2-2.9,3-3.2,5.1C0.9,82.7,1,82.6,1,82.4"/>
</g>
<title>Group 32</title>
<g>
	<path class="st0" d="M135.8,116.6c2-1.3,3.2-3.6,3.2-6l0.1-12.2l0.1-13c0-0.6,0-1.2-0.1-1.7L119,96.3l-11.7,7.7
		c-1.3,0.9-3,0.8-4.3-0.1l-9.3-6.7L82,89.7l-10.5-6.7c-0.2,0.6-0.2,1.3-0.2,1.9l-0.1,11.9l0,13.5c0,2.4,1.2,4.7,3.2,6.1l26.6,18.1
		c2.5,1.7,5.7,1.7,8.2,0L135.8,116.6L135.8,116.6z"/>
	<path class="st1" d="M71.5,82.9L82,89.7l11.6,7.5l9.5-6.3c1.3-0.9,3-0.8,4.3,0.1l9.3,6.7l0.1,0l2.2-1.5l20.1-12.7
		c-0.3-2.1-1.4-3.9-3.1-5.1l-26.6-18.1c-2.5-1.7-5.7-1.7-8.2,0L74.6,78.3c-1.7,1.2-2.9,3-3.2,5.1C71.4,83.2,71.5,83.1,71.5,82.9"/>
</g>
<title>Group 32</title>
<g>
	<path class="st0" d="M100.6,58.3c2-1.3,3.2-3.6,3.2-6l0.1-12.2l0.1-13c0-0.6,0-1.2-0.1-1.7L83.8,38l-11.7,7.7
		c-1.3,0.9-3,0.8-4.3-0.1l-9.3-6.7l-11.7-7.6l-10.5-6.7c-0.2,0.6-0.2,1.3-0.2,1.9l-0.1,11.9l0,13.5c0,2.4,1.2,4.7,3.2,6.1l26.6,18.1
		c2.5,1.7,5.7,1.7,8.2,0L100.6,58.3L100.6,58.3z"/>
	<path class="st1" d="M36.3,24.6l10.5,6.7l11.6,7.5l9.5-6.3c1.3-0.9,3-0.8,4.3,0.1l9.3,6.7l0.1,0l2.2-1.5l20.1-12.7
		c-0.3-2.1-1.4-3.9-3.1-5.1L74.2,2.1c-2.5-1.7-5.7-1.7-8.2,0L39.4,20c-1.7,1.2-2.9,3-3.2,5.1C36.3,24.9,36.3,24.8,36.3,24.6"/>
</g>
</svg>
